adventprofmm-RegularItalic.ufo
<glyph name="comma" format="1">
  <advance width="266"/>
  <unicode hex="002C"/>
  <outline>
    <contour>
      <point x="79.9327" y="-85" type="line"/>
      <point x="100.184" y="-65"/>
      <point x="121.474" y="-26"/>
      <point x="126.874" y="-10" type="qcurve"/>
      <point x="115.3" y="-8"/>
      <point x="103.338" y="11"/>
      <point x="105.889" y="23" type="qcurve" smooth="yes"/>
      <point x="108.865" y="37"/>
      <point x="131.903" y="56"/>
      <point x="145.903" y="56" type="qcurve" smooth="yes"/>
      <point x="159.903" y="56"/>
      <point x="175.077" y="38"/>
      <point x="172.889" y="23" type="qcurve"/>
      <point x="167.788" y="-1"/>
      <point x="148.71" y="-39"/>
      <point x="125.334" y="-69"/>
      <point x="103.87" y="-90"/>
      <point x="94.3821" y="-97" type="qcurve"/>
    </contour>
  </outline>
</glyph>
<glyph name="one" format="1">
  <advance width="235"/>
  <unicode hex="0031"/>
  <outline>
    <contour>
      <point x="144.785" y="620" type="line"/>
      <point x="144.785" y="620"/>
      <point x="190.973" y="635"/>
      <point x="257.413" y="670"/>
      <point x="286.364" y="698" type="qcurve"/>
      <point x="340.364" y="698" type="line"/>
      <point x="192" y="0" type="line"/>
      <point x="139" y="0" type="line"/>
      <point x="273.336" y="632" type="line"/>
      <point x="259.423" y="623"/>
      <point x="214.534" y="600"/>
      <point x="167.92" y="583"/>
      <point x="150.495" y="581" type="qcurve"/>
    </contour>
  </outline>
</glyph>
<glyph name="six" format="1">
  <advance width="482"/>
  <unicode hex="0036"/>
  <outline>
    <contour>
      <point x="408.312" y="646" type="line" smooth="yes"/>
      <point x="371.312" y="646"/>
      <point x="297.21" y="622"/>
      <point x="265.684" y="596" type="qcurve" smooth="yes"/>
      <point x="232.732" y="568"/>
      <point x="192.278" y="500"/>
      <point x="182.288" y="453" type="qcurve" smooth="yes"/>
      <point x="159.545" y="346" type="line"/>
      <point x="185.433" y="369"/>
      <point x="240.81" y="399"/>
      <point x="298.998" y="414"/>
      <point x="328.998" y="414" type="qcurve" smooth="yes"/>
      <point x="374.998" y="414"/>
      <point x="443.409" y="383"/>
      <point x="467.82" y="352" type="qcurve" smooth="yes"/>
      <point x="517.854" y="291"/>
      <point x="498.936" y="202" type="qcurve" smooth="yes"/>
      <point x="479.806" y="112"/>
      <point x="404.053" y="52" type="qcurve"/>
      <point x="328.874" y="-10"/>
      <point x="241.874" y="-10" type="qcurve" smooth="yes"/>
      <point x="153.874" y="-10"/>
      <point x="105.053" y="52" type="qcurve"/>
      <point x="54.8064" y="112"/>
      <point x="73.9364" y="202" type="qcurve" smooth="yes"/>
      <point x="128.776" y="460" type="line" smooth="yes"/>
      <point x="137.491" y="501"/>
      <point x="179.283" y="580"/>
      <point x="213.51" y="614" type="qcurve" smooth="yes"/>
      <point x="248.949" y="649"/>
      <point x="356.364" y="698"/>
      <point x="423.364" y="698" type="qcurve" smooth="yes"/>
      <point x="458.364" y="698" type="line"/>
      <point x="447.312" y="646" type="line"/>
    </contour>
    <contour>
      <point x="320.308" y="359" type="qcurve" smooth="yes"/>
      <point x="277.308" y="359"/>
      <point x="196.168" y="316"/>
      <point x="138.076" y="245"/>
      <point x="128.936" y="202" type="qcurve" smooth="yes"/>
      <point x="119.796" y="159"/>
      <point x="147.705" y="88"/>
      <point x="210.565" y="45"/>
      <point x="253.565" y="45" type="qcurve" smooth="yes"/>
      <point x="296.565" y="45"/>
      <point x="376.705" y="88"/>
      <point x="434.796" y="159"/>
      <point x="443.936" y="202" type="qcurve" smooth="yes"/>
      <point x="453.076" y="245"/>
      <point x="425.168" y="316"/>
      <point x="363.308" y="359"/>
    </contour>
  </outline>
</glyph>
<glyph name="at" format="1">
  <advance width="717"/>
  <unicode hex="0040"/>
  <outline>
    <contour>
      <point x="783.65" y="450" type="line"/>
      <point x="771.588" y="445"/>
      <point x="751.549" y="426"/>
      <point x="738.81" y="399"/>
      <point x="734.771" y="380" type="qcurve" smooth="yes"/>
      <point x="691.135" y="170" type="line" smooth="yes"/>
      <point x="677.744" y="107"/>
      <point x="606.613" y="17"/>
      <point x="505.71" y="-39"/>
      <point x="386.971" y="-66"/>
      <point x="325.971" y="-66" type="qcurve" smooth="yes"/>
      <point x="266.971" y="-66"/>
      <point x="163.348" y="-36"/>
      <point x="88.1014" y="24"/>
      <point x="57.2942" y="119"/>
      <point x="70.8978" y="183" type="qcurve" smooth="yes"/>
      <point x="79.8252" y="225"/>
      <point x="95.1921" y="302"/>
      <point x="102.844" y="338" type="qcurve" smooth="yes"/>
      <point x="117.723" y="408"/>
      <point x="199.467" y="515"/>
      <point x="325.645" y="577"/>
      <point x="406.645" y="577" type="qcurve" smooth="yes"/>
      <point x="478.645" y="577"/>
      <point x="564.781" y="540"/>
      <point x="603.815" y="479"/>
      <point x="603.95" y="442" type="qcurve"/>
      <point x="670.95" y="442" type="line"/>
      <point x="646.472" y="388" type="line"/>
      <point x="596.472" y="388" type="line"/>
      <point x="590.945" y="362"/>
      <point x="579.467" y="308"/>
      <point x="568.202" y="255"/>
      <point x="556.936" y="202"/>
      <point x="545.671" y="149"/>
      <point x="534.405" y="96"/>
      <point x="528.666" y="69" type="qcurve"/>
      <point x="528.666" y="69"/>
      <point x="490.241" y="67"/>
      <point x="434.604" y="64"/>
      <point x="379.178" y="62"/>
      <point x="360.966" y="61" type="qcurve" smooth="yes"/>
      <point x="324.753" y="60"/>
      <point x="259.304" y="72"/>
      <point x="210.956" y="108"/>
      <point x="192.623" y="177"/>
      <point x="204.526" y="233" type="qcurve" smooth="yes"/>
      <point x="216.216" y="288" type="line" smooth="yes"/>
      <point x="228.757" y="347"/>
      <point x="282.786" y="413"/>
      <point x="352.95" y="442"/>
      <point x="389.95" y="442" type="qcurve" smooth="yes"/>
      <point x="406.95" y="442"/>
      <point x="439.95" y="442"/>
      <point x="472.95" y="442"/>
      <point x="505.95" y="442"/>
      <point x="539.95" y="442"/>
      <point x="555.95" y="442" type="qcurve"/>
      <point x="551.665" y="483"/>
      <point x="469.442" y="529"/>
      <point x="399.442" y="529" type="qcurve" smooth="yes"/>
      <point x="357.442" y="529"/>
      <point x="281.341" y="505"/>
      <point x="217.351" y="458"/>
      <point x="173.472" y="388"/>
      <point x="163.482" y="341" type="qcurve" smooth="yes"/>
      <point x="155.405" y="303"/>
      <point x="139.25" y="227"/>
      <point x="131.173" y="189" type="qcurve" smooth="yes"/>
      <point x="115.657" y="116"/>
      <point x="162.164" y="29"/>
      <point x="269.662" y="-11"/>
      <point x="345.662" y="-11" type="qcurve" smooth="yes"/>
      <point x="392.662" y="-11"/>
      <point x="486.7" y="8"/>
      <point x="567.203" y="48"/>
      <point x="623.231" y="114"/>
      <point x="633.434" y="162" type="qcurve" smooth="yes"/>
      <point x="634.072" y="165"/>
      <point x="642.787" y="206"/>
      <point x="654.902" y="263"/>
      <point x="667.018" y="320"/>
      <point x="675.52" y="360"/>
      <point x="676.158" y="363" type="qcurve" smooth="yes"/>
      <point x="683.598" y="398"/>
      <point x="707.438" y="449"/>
      <point x="747.665" y="483"/>
      <point x="777.365" y="491" type="qcurve"/>
    </contour>
    <contour>
      <point x="375.472" y="388" type="qcurve" smooth="yes"/>
      <point x="360.472" y="388"/>
      <point x="318.134" y="377"/>
      <point x="278.994" y="334"/>
      <point x="268.579" y="285" type="qcurve" smooth="yes"/>
      <point x="256.25" y="227" type="line" smooth="yes"/>
      <point x="244.347" y="171"/>
      <point x="291.594" y="111"/>
      <point x="351.594" y="111" type="qcurve" smooth="yes"/>
      <point x="378.594" y="111"/>
      <point x="428.019" y="113"/>
      <point x="468.869" y="117"/>
      <point x="492.294" y="119"/>
      <point x="492.294" y="119" type="qcurve"/>
      <point x="549.472" y="388" type="line"/>
      <point x="532.472" y="388"/>
      <point x="497.472" y="388"/>
      <point x="462.472" y="388"/>
      <point x="428.472" y="388"/>
      <point x="393.472" y="388"/>
    </contour>
  </outline>
</glyph>
<glyph name="G" format="1">
  <advance width="477"/>
  <unicode hex="0047"/>
    <anchor name="bottom" x="238" y="0"/>
    <anchor name="top" x="394.229" y="735"/>
  <outline>
    <contour>
      <point x="488.214" y="636" type="line"/>
      <point x="462.552" y="647"/>
      <point x="411.678" y="657"/>
      <point x="386.678" y="657" type="qcurve" smooth="yes"/>
      <point x="349.678" y="657"/>
      <point x="289.277" y="641"/>
      <point x="265.662" y="624" type="qcurve" smooth="yes"/>
      <point x="240.623" y="605"/>
      <point x="206.717" y="549"/>
      <point x="198.426" y="510" type="qcurve" smooth="yes"/>
      <point x="129.544" y="186" type="line" smooth="yes"/>
      <point x="115.512" y="120"/>
      <point x="187.354" y="44"/>
      <point x="254.354" y="44" type="qcurve" smooth="yes"/>
      <point x="323.354" y="44"/>
      <point x="369.858" y="84" type="qcurve"/>
      <point x="393.898" y="103"/>
      <point x="424.74" y="154"/>
      <point x="431.544" y="186" type="qcurve" smooth="yes"/>
      <point x="443.874" y="244" type="line"/>
      <point x="314.874" y="244" type="line"/>
      <point x="306.567" y="299" type="line"/>
      <point x="508.567" y="299" type="line"/>
      <point x="445" y="0" type="line"/>
      <point x="394" y="0" type="line"/>
      <point x="398.717" y="41" type="line"/>
      <point x="377.102" y="24"/>
      <point x="329.213" y="1"/>
      <point x="275.874" y="-10"/>
      <point x="244.874" y="-10" type="qcurve" smooth="yes"/>
      <point x="199.874" y="-10"/>
      <point x="130.189" y="15"/>
      <point x="104.504" y="40" type="qcurve" smooth="yes"/>
      <point x="78.819" y="65"/>
      <point x="63.5514" y="139"/>
      <point x="73.9688" y="188" type="qcurve" smooth="yes"/>
      <point x="140.725" y="502" type="line" smooth="yes"/>
      <point x="154.119" y="565"/>
      <point x="217.466" y="656"/>
      <point x="265.993" y="682" type="qcurve"/>
      <point x="291.544" y="694"/>
      <point x="347.308" y="707"/>
      <point x="378.308" y="707" type="qcurve" smooth="yes"/>
      <point x="456.308" y="707"/>
      <point x="513.292" y="674" type="qcurve"/>
    </contour>
    <contour>
      <point x="238" y="0" type="move" name="bottom"/>
    </contour>
    <contour>
      <point x="394.229" y="735" type="move" name="top"/>
    </contour>
  </outline>
</glyph>
<glyph name="I" format="1">
  <advance width="186"/>
  <unicode hex="0049"/>
    <anchor name="top" x="249.229" y="735"/>
    <anchor name="tonos" x="179.79" y="700"/>
    <anchor name="ogonek" x="93" y="0"/>
  <outline>
    <contour>
      <point x="157.949" y="649" type="line"/>
      <point x="168.364" y="698" type="line"/>
      <point x="291.364" y="698" type="line"/>
      <point x="143" y="0" type="line"/>
      <point x="88" y="0" type="line"/>
      <point x="225.524" y="647" type="line"/>
    </contour>
    <contour>
      <point x="249.229" y="735" type="move" name="top"/>
    </contour>
    <contour>
      <point x="179.79" y="700" type="move" name="tonos"/>
    </contour>
    <contour>
      <point x="93" y="0" type="move" name="ogonek"/>
    </contour>
  </outline>
</glyph>
<glyph name="L" format="1">
  <advance width="423"/>
  <unicode hex="004C"/>
    <anchor name="top" x="367.229" y="735"/>
    <anchor name="bottom" x="211" y="0"/>
  <outline>
    <contour>
      <point x="41" y="0" type="line"/>
      <point x="189.395" y="698" type="line"/>
      <point x="245.395" y="698" type="line"/>
      <point x="107.63" y="50" type="line"/>
      <point x="411.63" y="50" type="line"/>
      <point x="401" y="0" type="line"/>
    </contour>
    <contour>
      <point x="367.229" y="735" type="move" name="top"/>
    </contour>
    <contour>
      <point x="211" y="0" type="move" name="bottom"/>
    </contour>
  </outline>
</glyph>
<glyph name="R" format="1">
  <advance width="508"/>
  <unicode hex="0052"/>
    <anchor name="top" x="410.229" y="735"/>
    <anchor name="bottom" x="254" y="0"/>
  <outline>
    <contour>
      <point x="424.395" y="698" type="line" smooth="yes"/>
      <point x="472.395" y="698"/>
      <point x="540.505" y="675"/>
      <point x="580.45" y="623"/>
      <point x="587.954" y="536"/>
      <point x="574.347" y="472" type="qcurve" smooth="yes"/>
      <point x="556.276" y="387"/>
      <point x="490.016" y="287"/>
      <point x="438.126" y="264" type="qcurve"/>
      <point x="478" y="0" type="line"/>
      <point x="422" y="0" type="line"/>
      <point x="383.937" y="249" type="line"/>
      <point x="371.3" y="246"/>
      <point x="342.874" y="244"/>
      <point x="327.874" y="244" type="qcurve" smooth="yes"/>
      <point x="148.874" y="244" type="line"/>
      <point x="97" y="0" type="line"/>
      <point x="41" y="0" type="line"/>
      <point x="189.395" y="698" type="line"/>
    </contour>
    <contour>
      <point x="344.567" y="299" type="line" smooth="yes"/>
      <point x="382.567" y="299"/>
      <point x="449.457" y="322"/>
      <point x="502.19" y="396"/>
      <point x="518.347" y="472" type="qcurve" smooth="yes"/>
      <point x="533.442" y="543"/>
      <point x="513.174" y="617"/>
      <point x="457.127" y="645"/>
      <point x="418.127" y="645" type="qcurve" smooth="yes"/>
      <point x="234.127" y="645" type="line"/>
      <point x="160.567" y="299" type="line"/>
    </contour>
    <contour>
      <point x="410.229" y="735" type="move" name="top"/>
    </contour>
    <contour>
      <point x="254" y="0" type="move" name="bottom"/>
    </contour>
  </outline>
</glyph>
<glyph name="S" format="1">
  <advance width="528"/>
  <unicode hex="0053"/>
    <anchor name="bottom" x="264" y="0"/>
    <anchor name="top" x="420.229" y="735"/>
  <outline>
    <contour>
      <point x="550.387" y="618" type="line"/>
      <point x="515.277" y="641"/>
      <point x="468.828" y="653"/>
      <point x="422.828" y="653" type="curve" smooth="yes"/>
      <point x="351.828" y="653"/>
      <point x="252.151" y="631"/>
      <point x="233.017" y="541" type="curve" smooth="yes"/>
      <point x="221.111" y="485"/>
      <point x="254.308" y="453"/>
      <point x="302.78" y="427" type="curve" smooth="yes"/>
      <point x="340.528" y="407"/>
      <point x="387.914" y="390"/>
      <point x="430.449" y="369" type="curve" smooth="yes"/>
      <point x="500.796" y="333"/>
      <point x="558.166" y="283"/>
      <point x="536.055" y="179" type="curve" smooth="yes"/>
      <point x="507.78" y="46"/>
      <point x="377.449" y="-12"/>
      <point x="259.449" y="-12" type="curve" smooth="yes"/>
      <point x="166.449" y="-12"/>
      <point x="91.252" y="20"/>
      <point x="44.5592" y="92" type="curve"/>
      <point x="87.0002" y="127" type="line"/>
      <point x="117.095" y="71"/>
      <point x="199.929" y="42"/>
      <point x="266.929" y="42" type="curve" smooth="yes"/>
      <point x="361.929" y="42"/>
      <point x="455.221" y="81"/>
      <point x="477.756" y="187" type="curve" smooth="yes"/>
      <point x="491.363" y="251"/>
      <point x="450.229" y="288"/>
      <point x="393.607" y="318" type="curve" smooth="yes"/>
      <point x="355.859" y="338"/>
      <point x="312.473" y="355"/>
      <point x="272.725" y="375" type="curve" smooth="yes"/>
      <point x="206.953" y="409"/>
      <point x="156.308" y="453"/>
      <point x="173.954" y="536" type="curve" smooth="yes"/>
      <point x="200.741" y="662"/>
      <point x="325.308" y="707"/>
      <point x="433.308" y="707" type="curve" smooth="yes"/>
      <point x="486.308" y="707"/>
      <point x="537.757" y="695"/>
      <point x="578.442" y="670" type="curve"/>
    </contour>
    <contour>
      <point x="264" y="0" type="move" name="bottom"/>
    </contour>
    <contour>
      <point x="420.229" y="735" type="move" name="top"/>
    </contour>
  </outline>
</glyph>
<glyph name="W" format="1">
  <advance width="731"/>
  <unicode hex="0057"/>
    <anchor name="top" x="521.229" y="735"/>
  <outline>
    <contour>
      <point x="552.365" y="698" type="line"/>
      <point x="525.666" y="69" type="line"/>
      <point x="800.365" y="698" type="line"/>
      <point x="859.365" y="698" type="line"/>
      <point x="548" y="0" type="line"/>
      <point x="464" y="0" type="line"/>
      <point x="492.896" y="597" type="line"/>
      <point x="267" y="0" type="line"/>
      <point x="182" y="0" type="line"/>
      <point x="165.364" y="698" type="line"/>
      <point x="226.364" y="698" type="line"/>
      <point x="233.666" y="69" type="line"/>
      <point x="474.364" y="698" type="line"/>
    </contour>
    <contour>
      <point x="521.229" y="735" type="move" name="top"/>
    </contour>
  </outline>
</glyph>
<glyph name="backslash" format="1">
  <advance width="413"/>
  <unicode hex="005C"/>
  <outline>
    <contour>
      <point x="310.981" y="-113" type="line"/>
      <point x="189.234" y="815" type="line"/>
      <point x="245.234" y="815" type="line"/>
      <point x="371.981" y="-113" type="line"/>
    </contour>
  </outline>
</glyph>
<glyph name="d" format="1">
  <advance width="456"/>
  <unicode hex="0064"/>
    <anchor name="top" x="384.229" y="735"/>
  <outline>
    <contour>
      <point x="413" y="0" type="line"/>
      <point x="413" y="0"/>
      <point x="378.362" y="-3"/>
      <point x="325.724" y="-6"/>
      <point x="272.874" y="-10"/>
      <point x="254.874" y="-10" type="qcurve"/>
      <point x="190.449" y="-12"/>
      <point x="92.4016" y="16"/>
      <point x="49.197" y="95"/>
      <point x="64.7168" y="168" type="qcurve" smooth="yes"/>
      <point x="105.111" y="358" type="line" smooth="yes"/>
      <point x="117.016" y="414"/>
      <point x="181.048" y="480"/>
      <point x="263.001" y="508"/>
      <point x="303.001" y="508" type="qcurve" smooth="yes"/>
      <point x="352.001" y="508"/>
      <point x="427.324" y="486"/>
      <point x="458.135" y="471" type="qcurve"/>
      <point x="506.395" y="698" type="line"/>
      <point x="561.395" y="698" type="line"/>
    </contour>
    <contour>
      <point x="447.717" y="422" type="line"/>
      <point x="411.331" y="439"/>
      <point x="337.009" y="461"/>
      <point x="289.009" y="461" type="qcurve" smooth="yes"/>
      <point x="271.009" y="461"/>
      <point x="216.82" y="446"/>
      <point x="169.04" y="400"/>
      <point x="159.26" y="354" type="qcurve" smooth="yes"/>
      <point x="121.205" y="175" type="line" smooth="yes"/>
      <point x="113.551" y="139"/>
      <point x="117.284" y="86"/>
      <point x="148.055" y="52"/>
      <point x="209.654" y="36"/>
      <point x="260.079" y="38" type="qcurve"/>
      <point x="284.504" y="40"/>
      <point x="323.929" y="42"/>
      <point x="352.567" y="45"/>
      <point x="367.78" y="46"/>
      <point x="367.78" y="46" type="qcurve"/>
    </contour>
    <contour>
      <point x="384.229" y="735" type="move" name="top"/>
    </contour>
  </outline>
</glyph>
<glyph name="e" format="1">
  <advance width="421"/>
  <unicode hex="0065"/>
    <anchor name="top" x="325.843" y="545"/>
    <anchor name="ogonek" x="210" y="0"/>
  <outline>
    <contour>
      <point x="115.27" y="133" type="line" smooth="yes"/>
      <point x="109.956" y="108"/>
      <point x="116.729" y="74"/>
      <point x="126.391" y="63" type="qcurve" smooth="yes"/>
      <point x="136.628" y="50"/>
      <point x="166.077" y="38"/>
      <point x="196.652" y="36"/>
      <point x="205.652" y="36" type="qcurve" smooth="yes"/>
      <point x="242.652" y="36"/>
      <point x="318.328" y="58"/>
      <point x="360.579" y="78" type="qcurve"/>
      <point x="373.439" y="35" type="line"/>
      <point x="330.551" y="12"/>
      <point x="238.662" y="-11"/>
      <point x="200.449" y="-12" type="qcurve"/>
      <point x="185.449" y="-12"/>
      <point x="140.087" y="-9"/>
      <point x="94.2753" y="6"/>
      <point x="77.1014" y="24" type="qcurve" smooth="yes"/>
      <point x="62.7148" y="41"/>
      <point x="50.7678" y="93"/>
      <point x="59.27" y="133" type="qcurve" smooth="yes"/>
      <point x="102.844" y="338" type="line" smooth="yes"/>
      <point x="112.409" y="383"/>
      <point x="159.863" y="451"/>
      <point x="193.539" y="473" type="qcurve" smooth="yes"/>
      <point x="247.979" y="508"/>
      <point x="322.979" y="508" type="qcurve" smooth="yes"/>
      <point x="408.979" y="508"/>
      <point x="445.989" y="461" type="qcurve"/>
      <point x="479.424" y="416"/>
      <point x="463.482" y="341" type="qcurve" smooth="yes"/>
      <point x="435.849" y="211" type="line"/>
      <point x="128.449" y="195" type="line"/>
    </contour>
    <contour>
      <point x="408.97" y="348" type="qcurve" smooth="yes"/>
      <point x="413.646" y="370"/>
      <point x="408.873" y="404"/>
      <point x="400.849" y="418" type="qcurve" smooth="yes"/>
      <point x="383.588" y="445"/>
      <point x="336.989" y="461"/>
      <point x="311.989" y="461" type="qcurve" smooth="yes"/>
      <point x="283.989" y="461"/>
      <point x="233.588" y="445"/>
      <point x="212.187" y="429" type="qcurve" smooth="yes"/>
      <point x="192.786" y="413"/>
      <point x="165.221" y="368"/>
      <point x="158.632" y="337" type="qcurve" smooth="yes"/>
      <point x="153.955" y="315"/>
      <point x="144.603" y="271"/>
      <point x="140.139" y="250" type="qcurve"/>
      <point x="390.477" y="261" type="line"/>
      <point x="394.941" y="282"/>
      <point x="404.293" y="326"/>
    </contour>
    <contour>
      <point x="325.843" y="545" type="move" name="top"/>
    </contour>
    <contour>
      <point x="210" y="0" type="move" name="ogonek"/>
    </contour>
  </outline>
</glyph>
<glyph name="h" format="1">
  <advance width="443"/>
  <unicode hex="0068"/>
    <anchor name="top" x="377.229" y="735"/>
  <outline>
    <contour>
      <point x="195.839" y="465" type="line"/>
      <point x="229.09" y="485"/>
      <point x="306.979" y="508"/>
      <point x="343.979" y="508" type="qcurve" smooth="yes"/>
      <point x="384.979" y="508"/>
      <point x="445.515" y="487"/>
      <point x="481.588" y="445"/>
      <point x="491.622" y="384"/>
      <point x="483.332" y="345" type="qcurve" smooth="yes"/>
      <point x="410" y="0" type="line"/>
      <point x="354" y="0" type="line"/>
      <point x="426.694" y="342" type="line" smooth="yes"/>
      <point x="436.259" y="387"/>
      <point x="409.1" y="438"/>
      <point x="354.351" y="458"/>
      <point x="322.351" y="458" type="qcurve" smooth="yes"/>
      <point x="288.351" y="458"/>
      <point x="221.737" y="441"/>
      <point x="187.124" y="424" type="qcurve"/>
      <point x="97" y="0" type="line"/>
      <point x="41" y="0" type="line"/>
      <point x="189.364" y="698" type="line"/>
      <point x="245.364" y="698" type="line"/>
    </contour>
    <contour>
      <point x="377.229" y="735" type="move" name="top"/>
    </contour>
  </outline>
</glyph>
<glyph name="i" format="1">
  <advance width="150"/>
  <unicode hex="0069"/>
  <outline>
    <contour>
      <point x="38" y="0" type="line"/>
      <point x="144.066" y="499" type="line"/>
      <point x="200.066" y="499" type="line"/>
      <point x="94" y="0" type="line"/>
    </contour>
    <contour>
      <point x="225.49" y="708" type="qcurve" smooth="yes"/>
      <point x="238.49" y="708"/>
      <point x="254.239" y="688"/>
      <point x="251.263" y="674" type="qcurve" smooth="yes"/>
      <point x="248.5" y="661"/>
      <point x="224.249" y="641"/>
      <point x="211.249" y="641" type="qcurve" smooth="yes"/>
      <point x="197.249" y="641"/>
      <point x="181.5" y="661"/>
      <point x="184.263" y="674" type="qcurve" smooth="yes"/>
      <point x="187.239" y="688"/>
      <point x="211.49" y="708"/>
    </contour>
  </outline>
</glyph>
<glyph name="p" format="1">
  <advance width="441"/>
  <unicode hex="0070"/>
  <outline>
    <contour>
      <point x="445.197" y="175" type="line" smooth="yes"/>
      <point x="425.855" y="84"/>
      <point x="318.449" y="-12"/>
      <point x="235.449" y="-12" type="qcurve" smooth="yes"/>
      <point x="204.449" y="-12"/>
      <point x="152.488" y="7"/>
      <point x="116.715" y="41"/>
      <point x="108.966" y="61" type="qcurve"/>
      <point x="50.938" y="-212" type="line"/>
      <point x="-3.29877" y="-199" type="line"/>
      <point x="144.853" y="498" type="line"/>
      <point x="201.853" y="498" type="line"/>
      <point x="191.863" y="451" type="line"/>
      <point x="217.689" y="469"/>
      <point x="270.003" y="494"/>
      <point x="321.766" y="507"/>
      <point x="345.979" y="508" type="qcurve" smooth="yes"/>
      <point x="429.829" y="512"/>
      <point x="498.124" y="424"/>
      <point x="481.332" y="345" type="qcurve" smooth="yes"/>
    </contour>
    <contour>
      <point x="423.694" y="342" type="line" smooth="yes"/>
      <point x="433.259" y="387"/>
      <point x="408.525" y="440"/>
      <point x="355.989" y="461"/>
      <point x="323.351" y="458" type="qcurve" smooth="yes"/>
      <point x="300.926" y="456"/>
      <point x="248.525" y="440"/>
      <point x="198.786" y="413"/>
      <point x="179.322" y="392" type="qcurve"/>
      <point x="132.772" y="173" type="line" smooth="yes"/>
      <point x="123.845" y="131"/>
      <point x="148.092" y="71"/>
      <point x="205.502" y="40"/>
      <point x="243.502" y="40" type="qcurve" smooth="yes"/>
      <point x="299.502" y="40"/>
      <point x="372.893" y="103"/>
      <point x="386.284" y="166" type="qcurve" smooth="yes"/>
    </contour>
  </outline>
</glyph>
<glyph name="q" format="1">
  <advance width="440"/>
  <unicode hex="0071"/>
  <outline>
    <contour>
      <point x="356.178" y="62" type="line"/>
      <point x="340.927" y="42"/>
      <point x="289.7" y="8"/>
      <point x="229.662" y="-11"/>
      <point x="199.662" y="-11" type="qcurve" smooth="yes"/>
      <point x="115.662" y="-11"/>
      <point x="49.0673" y="85"/>
      <point x="68.4099" y="176" type="qcurve" smooth="yes"/>
      <point x="104.332" y="345" type="line" smooth="yes"/>
      <point x="121.337" y="425"/>
      <point x="228.042" y="513"/>
      <point x="309.191" y="509" type="qcurve" smooth="yes"/>
      <point x="332.979" y="508"/>
      <point x="379.215" y="495"/>
      <point x="420.902" y="470"/>
      <point x="439.076" y="452" type="qcurve"/>
      <point x="448.853" y="498" type="line"/>
      <point x="505.853" y="498" type="line"/>
      <point x="355.151" y="-211" type="line"/>
      <point x="300.914" y="-198" type="line"/>
    </contour>
    <contour>
      <point x="426.535" y="393" type="line"/>
      <point x="416.998" y="414"/>
      <point x="377.95" y="442"/>
      <point x="332.138" y="457"/>
      <point x="310.563" y="459" type="qcurve" smooth="yes"/>
      <point x="279.989" y="461"/>
      <point x="217.525" y="440"/>
      <point x="169.472" y="388"/>
      <point x="159.907" y="343" type="qcurve" smooth="yes"/>
      <point x="122.497" y="167" type="line" smooth="yes"/>
      <point x="109.318" y="105"/>
      <point x="156.715" y="41"/>
      <point x="213.715" y="41" type="qcurve" smooth="yes"/>
      <point x="242.715" y="41"/>
      <point x="296.328" y="58"/>
      <point x="341.555" y="92"/>
      <point x="372.97" y="141"/>
      <point x="379.772" y="173" type="qcurve" smooth="yes"/>
    </contour>
  </outline>
</glyph>
<glyph name="r" format="1">
  <advance width="332"/>
  <unicode hex="0072"/>
    <anchor name="top" x="281.843" y="545"/>
    <anchor name="bottom" x="166" y="0"/>
  <outline>
    <contour>
      <point x="402.583" y="459" type="line"/>
      <point x="402.583" y="459"/>
      <point x="377.009" y="461"/>
      <point x="360.796" y="460" type="qcurve" smooth="yes"/>
      <point x="332.583" y="459"/>
      <point x="264.182" y="443"/>
      <point x="202.505" y="421"/>
      <point x="180.741" y="408" type="qcurve"/>
      <point x="94" y="0" type="line"/>
      <point x="38" y="0" type="line"/>
      <point x="144.087" y="499" type="line"/>
      <point x="200.087" y="499" type="line"/>
      <point x="193.072" y="466" type="line"/>
      <point x="233.686" y="483"/>
      <point x="318.001" y="508"/>
      <point x="372.426" y="510" type="qcurve"/>
      <point x="390.851" y="512"/>
      <point x="416.788" y="507"/>
      <point x="416.788" y="507" type="qcurve"/>
    </contour>
    <contour>
      <point x="281.843" y="545" type="move" name="top"/>
    </contour>
    <contour>
      <point x="166" y="0" type="move" name="bottom"/>
    </contour>
  </outline>
</glyph>
<glyph name="s" format="1">
  <advance width="416"/>
  <unicode hex="0073"/>
    <anchor name="bottom" x="208" y="0"/>
    <anchor name="top" x="323.843" y="545"/>
  <outline>
    <contour>
      <point x="415.119" y="438" type="line"/>
      <point x="402.032" y="447"/>
      <point x="368.371" y="458"/>
      <point x="331.646" y="464"/>
      <point x="313.434" y="463" type="qcurve" smooth="yes"/>
      <point x="291.221" y="462"/>
      <point x="248.883" y="451"/>
      <point x="230.544" y="440" type="qcurve" smooth="yes"/>
      <point x="209.993" y="428"/>
      <point x="182.914" y="390"/>
      <point x="181.386" y="364" type="qcurve" smooth="yes"/>
      <point x="180.772" y="347"/>
      <point x="199.245" y="321"/>
      <point x="214.119" y="311" type="qcurve" smooth="yes"/>
      <point x="229.993" y="301"/>
      <point x="270.378" y="284"/>
      <point x="291.678" y="276" type="qcurve" smooth="yes"/>
      <point x="318.339" y="265"/>
      <point x="372.599" y="238"/>
      <point x="390.347" y="218" type="qcurve" smooth="yes"/>
      <point x="403.945" y="202"/>
      <point x="418.229" y="161"/>
      <point x="414.276" y="133" type="qcurve" smooth="yes"/>
      <point x="407.772" y="93"/>
      <point x="357.378" y="30"/>
      <point x="322.126" y="10" type="qcurve" smooth="yes"/>
      <point x="297.15" y="-4"/>
      <point x="239.173" y="-18"/>
      <point x="209.173" y="-18" type="qcurve"/>
      <point x="184.386" y="-17"/>
      <point x="135.512" y="-7"/>
      <point x="112.85" y="4" type="qcurve" smooth="yes"/>
      <point x="92.189" y="15"/>
      <point x="54.7796" y="46"/>
      <point x="40.4568" y="68" type="qcurve"/>
      <point x="78.26" y="100" type="line"/>
      <point x="90.071" y="85"/>
      <point x="122.331" y="58"/>
      <point x="144.205" y="48" type="qcurve" smooth="yes"/>
      <point x="159.929" y="42"/>
      <point x="198.228" y="34"/>
      <point x="220.228" y="34" type="qcurve" smooth="yes"/>
      <point x="244.228" y="34"/>
      <point x="289.78" y="46"/>
      <point x="308.118" y="57" type="qcurve" smooth="yes"/>
      <point x="327.669" y="69"/>
      <point x="355.685" y="102"/>
      <point x="359.937" y="122" type="qcurve"/>
      <point x="365.614" y="144"/>
      <point x="353.418" y="176"/>
      <point x="338.969" y="188" type="qcurve" smooth="yes"/>
      <point x="324.733" y="201"/>
      <point x="281.985" y="221"/>
      <point x="258.111" y="231" type="qcurve" smooth="yes"/>
      <point x="233.237" y="241"/>
      <point x="185.701" y="262"/>
      <point x="165.89" y="277" type="qcurve"/>
      <point x="148.292" y="293"/>
      <point x="126.796" y="333"/>
      <point x="128.961" y="362" type="qcurve"/>
      <point x="134.678" y="403"/>
      <point x="179.434" y="463"/>
      <point x="212.473" y="482" type="qcurve" smooth="yes"/>
      <point x="236.45" y="496"/>
      <point x="292.426" y="510"/>
      <point x="321.426" y="510" type="qcurve"/>
      <point x="342.639" y="511"/>
      <point x="382.363" y="505"/>
      <point x="424.174" y="490"/>
      <point x="445.985" y="475" type="qcurve"/>
    </contour>
    <contour>
      <point x="208" y="0" type="move" name="bottom"/>
    </contour>
    <contour>
      <point x="323.843" y="545" type="move" name="top"/>
    </contour>
  </outline>
</glyph>
<glyph name="t" format="1">
  <advance width="240"/>
  <unicode hex="0074"/>
    <anchor name="bottom" x="120" y="0"/>
    <anchor name="top" x="276.229" y="735"/>
  <outline>
    <contour>
      <point x="123.063" y="132" type="line" smooth="yes"/>
      <point x="114.559" y="92"/>
      <point x="136.717" y="41"/>
      <point x="167.378" y="30" type="qcurve"/>
      <point x="141.236" y="-13" type="line"/>
      <point x="89.6378" y="3"/>
      <point x="54.5198" y="73"/>
      <point x="67.0632" y="132" type="qcurve" smooth="yes"/>
      <point x="187.395" y="698" type="line"/>
      <point x="243.395" y="698" type="line"/>
      <point x="201.087" y="499" type="line"/>
      <point x="321.087" y="499" type="line"/>
      <point x="286.032" y="447" type="line"/>
      <point x="190.032" y="447" type="line"/>
    </contour>
    <contour>
      <point x="120" y="0" type="move" name="bottom"/>
    </contour>
    <contour>
      <point x="276.229" y="735" type="move" name="top"/>
    </contour>
  </outline>
</glyph>
<glyph name="y" format="1">
  <advance width="467"/>
  <unicode hex="0079"/>
    <anchor name="top" x="348.843" y="545"/>
  <outline>
    <contour>
      <point x="536.476" y="468" type="line"/>
      <point x="521.201" y="462"/>
      <point x="497.1" y="438"/>
      <point x="490.51" y="407" type="qcurve" smooth="yes"/>
      <point x="390.821" y="-62" type="line" smooth="yes"/>
      <point x="383.595" y="-96"/>
      <point x="358.967" y="-146"/>
      <point x="337.928" y="-165" type="qcurve" smooth="yes"/>
      <point x="321.952" y="-179"/>
      <point x="280.489" y="-200"/>
      <point x="254.788" y="-208" type="qcurve"/>
      <point x="247.928" y="-165" type="line"/>
      <point x="264.203" y="-159"/>
      <point x="291.029" y="-141"/>
      <point x="301.368" y="-130" type="qcurve" smooth="yes"/>
      <point x="325.894" y="-104"/>
      <point x="335.034" y="-61" type="qcurve" smooth="yes"/>
      <point x="358.628" y="50" type="line"/>
      <point x="327.251" y="20"/>
      <point x="245.087" y="-9"/>
      <point x="207.087" y="-9" type="qcurve" smooth="yes"/>
      <point x="166.087" y="-9"/>
      <point x="105.338" y="11"/>
      <point x="69.0529" y="52"/>
      <point x="59.444" y="115"/>
      <point x="68.3714" y="157" type="qcurve" smooth="yes"/>
      <point x="141.066" y="499" type="line"/>
      <point x="197.066" y="499" type="line"/>
      <point x="125.222" y="161" type="line" smooth="yes"/>
      <point x="115.444" y="115"/>
      <point x="143.604" y="64"/>
      <point x="199.352" y="44"/>
      <point x="230.352" y="44" type="qcurve" smooth="yes"/>
      <point x="266.352" y="44"/>
      <point x="330.792" y="79"/>
      <point x="377.333" y="138"/>
      <point x="384.772" y="173" type="qcurve" smooth="yes"/>
      <point x="434.723" y="408" type="line" smooth="yes"/>
      <point x="439.612" y="431"/>
      <point x="463.114" y="471"/>
      <point x="499.703" y="502"/>
      <point x="525.404" y="510" type="qcurve"/>
    </contour>
    <contour>
      <point x="348.843" y="545" type="move" name="top"/>
    </contour>
  </outline>
</glyph>
<glyph name="braceright" format="1">
  <advance width="262"/>
  <unicode hex="007D"/>
  <outline>
    <contour>
      <point x="217.296" y="820" type="line"/>
      <point x="219.084" y="819"/>
      <point x="248.895" y="804"/>
      <point x="282.181" y="763"/>
      <point x="298.239" y="688"/>
      <point x="285.485" y="628" type="qcurve" smooth="yes"/>
      <point x="261.467" y="515" type="line" smooth="yes"/>
      <point x="255.515" y="487"/>
      <point x="252.25" y="434"/>
      <point x="271.622" y="384"/>
      <point x="298.52" y="360" type="qcurve" smooth="yes"/>
      <point x="307.82" y="352" type="line"/>
      <point x="295.119" y="344" type="line" smooth="yes"/>
      <point x="258.018" y="320"/>
      <point x="217.178" y="269"/>
      <point x="198.125" y="217"/>
      <point x="192.173" y="189" type="qcurve" smooth="yes"/>
      <point x="168.154" y="76" type="line" smooth="yes"/>
      <point x="155.401" y="16"/>
      <point x="107.459" y="-59"/>
      <point x="56.7443" y="-100"/>
      <point x="19.3434" y="-116"/>
      <point x="17.1308" y="-117" type="qcurve"/>
      <point x="5.75862" y="-67" type="line"/>
      <point x="18.034" y="-61"/>
      <point x="48.4976" y="-40"/>
      <point x="79.7246" y="-6"/>
      <point x="105.14" y="43"/>
      <point x="112.154" y="76" type="qcurve" smooth="yes"/>
      <point x="136.173" y="189" type="line" smooth="yes"/>
      <point x="142.125" y="217"/>
      <point x="161.815" y="272"/>
      <point x="201.293" y="326"/>
      <point x="236.82" y="352" type="qcurve"/>
      <point x="212.346" y="378"/>
      <point x="195.824" y="432"/>
      <point x="199.515" y="487"/>
      <point x="205.467" y="515" type="qcurve" smooth="yes"/>
      <point x="229.485" y="628" type="line" smooth="yes"/>
      <point x="236.5" y="661"/>
      <point x="232.128" y="711"/>
      <point x="216.355" y="745"/>
      <point x="194.818" y="766"/>
      <point x="185.094" y="772" type="qcurve"/>
    </contour>
  </outline>
</glyph>
<glyph name="asciitilde" format="1">
  <advance width="266"/>
  <unicode hex="007E"/>
  <outline>
    <contour>
      <point x="352.83" y="305" type="line"/>
      <point x="324.516" y="280"/>
      <point x="278.477" y="261"/>
      <point x="259.69" y="262" type="qcurve"/>
      <point x="236.69" y="262"/>
      <point x="195.303" y="279"/>
      <point x="155.129" y="297"/>
      <point x="132.342" y="298" type="qcurve" smooth="yes"/>
      <point x="116.554" y="299"/>
      <point x="81.2163" y="288"/>
      <point x="59.6028" y="271" type="qcurve"/>
      <point x="45.3176" y="312" type="line"/>
      <point x="72.2064" y="335"/>
      <point x="117.032" y="353"/>
      <point x="136.032" y="353" type="qcurve" smooth="yes"/>
      <point x="161.032" y="353"/>
      <point x="204.206" y="335"/>
      <point x="246.38" y="317"/>
      <point x="269.38" y="317" type="qcurve"/>
      <point x="288.593" y="318"/>
      <point x="321.781" y="333"/>
      <point x="336.545" y="346" type="qcurve"/>
    </contour>
  </outline>
</glyph>
<glyph name="exclamdown" format="1">
  <advance width="147"/>
  <unicode hex="00A1"/>
  <outline>
    <contour>
      <point x="113.652" y="36" type="line" smooth="yes"/>
      <point x="106" y="0"/>
      <point x="73" y="0" type="qcurve" smooth="yes"/>
      <point x="57" y="0"/>
      <point x="43.826" y="18"/>
      <point x="47.8646" y="37" type="qcurve" smooth="yes"/>
      <point x="174.983" y="588" type="line"/>
      <point x="221.983" y="588" type="line"/>
    </contour>
    <contour>
      <point x="249.263" y="674" type="qcurve" smooth="yes"/>
      <point x="246.5" y="661"/>
      <point x="223.249" y="641"/>
      <point x="209.249" y="641" type="qcurve" smooth="yes"/>
      <point x="195.249" y="641"/>
      <point x="179.5" y="661"/>
      <point x="182.263" y="674" type="qcurve" smooth="yes"/>
      <point x="185.239" y="688"/>
      <point x="209.277" y="707"/>
      <point x="223.277" y="707" type="qcurve" smooth="yes"/>
      <point x="237.277" y="707"/>
      <point x="252.239" y="688"/>
    </contour>
  </outline>
</glyph>
<glyph name="ordfeminine" format="1">
  <advance width="328"/>
  <unicode hex="00AA"/>
  <outline>
    <contour>
      <point x="374.685" y="389" type="qcurve"/>
      <point x="340.834" y="385"/>
      <point x="278.346" y="378"/>
      <point x="251.346" y="378" type="qcurve"/>
      <point x="218.559" y="379"/>
      <point x="167.535" y="393"/>
      <point x="135.124" y="424"/>
      <point x="124.389" y="477"/>
      <point x="132.892" y="517" type="qcurve" smooth="yes"/>
      <point x="139.906" y="550"/>
      <point x="174.746" y="601"/>
      <point x="227.911" y="630"/>
      <point x="261.698" y="629" type="qcurve" smooth="yes"/>
      <point x="284.486" y="628"/>
      <point x="336.66" y="610"/>
      <point x="365.621" y="591" type="qcurve"/>
      <point x="369.234" y="608"/>
      <point x="361.824" y="639"/>
      <point x="346.949" y="649" type="qcurve"/>
      <point x="335.862" y="658"/>
      <point x="292.138" y="664"/>
      <point x="264.138" y="664" type="qcurve"/>
      <point x="277.277" y="707" type="line"/>
      <point x="318.277" y="707"/>
      <point x="376.302" y="693"/>
      <point x="392.688" y="676" type="qcurve" smooth="yes"/>
      <point x="410.075" y="659"/>
      <point x="419.321" y="599"/>
      <point x="409.544" y="553" type="qcurve" smooth="yes"/>
      <point x="406.143" y="537"/>
      <point x="399.129" y="504"/>
      <point x="392.114" y="471"/>
      <point x="385.1" y="438"/>
      <point x="378.298" y="406"/>
    </contour>
    <contour>
      <point x="352.993" y="541" type="line"/>
      <point x="326.819" y="559"/>
      <point x="270.708" y="582"/>
      <point x="246.708" y="582" type="qcurve" smooth="yes"/>
      <point x="230.708" y="582"/>
      <point x="203.732" y="568"/>
      <point x="184.355" y="538"/>
      <point x="178.829" y="512" type="qcurve" smooth="yes"/>
      <point x="172.452" y="482"/>
      <point x="188.163" y="443"/>
      <point x="209.824" y="432" type="qcurve" smooth="yes"/>
      <point x="222.549" y="426"/>
      <point x="262.911" y="423"/>
      <point x="302.337" y="425"/>
      <point x="328.974" y="428"/>
      <point x="328.974" y="428" type="qcurve"/>
    </contour>
  </outline>
</glyph>
<glyph name="mu" format="1">
  <advance width="464"/>
  <unicode hex="00B5"/>
  <outline>
    <contour>
      <point x="427.984" y="94" type="line" smooth="yes"/>
      <point x="423.52" y="73"/>
      <point x="430.929" y="42"/>
      <point x="440.528" y="26"/>
      <point x="440.528" y="26" type="qcurve"/>
      <point x="406.724" y="-6" type="line"/>
      <point x="406.724" y="-6"/>
      <point x="393.425" y="2"/>
      <point x="375.89" y="23"/>
      <point x="369.354" y="44" type="qcurve"/>
      <point x="355.74" y="27"/>
      <point x="315.213" y="1"/>
      <point x="268.449" y="-12"/>
      <point x="243.449" y="-12" type="qcurve" smooth="yes"/>
      <point x="195.449" y="-12"/>
      <point x="134.402" y="16"/>
      <point x="105.354" y="44"/>
      <point x="105.354" y="44" type="qcurve"/>
      <point x="51.5666" y="-209" type="line"/>
      <point x="-3.52" y="-200" type="line"/>
      <point x="145.087" y="499" type="line"/>
      <point x="202.087" y="499" type="line"/>
      <point x="118.323" y="105" type="line"/>
      <point x="123.047" y="99"/>
      <point x="142.795" y="79"/>
      <point x="176.118" y="57"/>
      <point x="225.142" y="43"/>
      <point x="258.142" y="43" type="qcurve" smooth="yes"/>
      <point x="309.142" y="43"/>
      <point x="371.622" y="97"/>
      <point x="383.528" y="153" type="qcurve" smooth="yes"/>
      <point x="456.45" y="496" type="line"/>
      <point x="516.001" y="508" type="line"/>
    </contour>
  </outline>
</glyph>
<glyph name="multiply" format="1">
  <advance width="346"/>
  <unicode hex="00D7"/>
  <outline>
    <contour>
      <point x="252.496" y="374" type="line"/>
      <point x="378.215" y="495" type="line"/>
      <point x="411.989" y="461" type="line"/>
      <point x="278.569" y="332" type="line"/>
      <point x="357.574" y="205" type="line"/>
      <point x="308.497" y="167" type="line"/>
      <point x="234.429" y="289" type="line"/>
      <point x="108.497" y="167" type="line"/>
      <point x="74.5741" y="205" type="line"/>
      <point x="206.569" y="332" type="line"/>
      <point x="128.989" y="461" type="line"/>
      <point x="176.216" y="495" type="line"/>
    </contour>
  </outline>
</glyph>
<glyph name="ae" format="1">
  <advance width="747"/>
  <unicode hex="00E6"/>
  <outline>
    <contour>
      <point x="441.27" y="133" type="line" smooth="yes"/>
      <point x="433.618" y="97"/>
      <point x="450.328" y="58"/>
      <point x="483.502" y="40"/>
      <point x="519.652" y="36"/>
      <point x="531.652" y="36" type="qcurve" smooth="yes"/>
      <point x="571.652" y="36"/>
      <point x="644.328" y="58"/>
      <point x="685.579" y="78" type="qcurve"/>
      <point x="698.439" y="35" type="line"/>
      <point x="656.551" y="12"/>
      <point x="564.662" y="-11"/>
      <point x="526.449" y="-12" type="qcurve"/>
      <point x="504.449" y="-12"/>
      <point x="437.937" y="-5"/>
      <point x="412.976" y="14" type="qcurve"/>
      <point x="410" y="0" type="line"/>
      <point x="405.787" y="-1"/>
      <point x="366.15" y="-4"/>
      <point x="310.512" y="-7"/>
      <point x="254.087" y="-9"/>
      <point x="210.874" y="-10"/>
      <point x="203.874" y="-10" type="qcurve"/>
      <point x="152.512" y="-7"/>
      <point x="78.9516" y="28"/>
      <point x="48.1059" y="104"/>
      <point x="61.7095" y="168" type="qcurve" smooth="yes"/>
      <point x="79.3517" y="251" type="line" smooth="yes"/>
      <point x="88.2791" y="293"/>
      <point x="125.607" y="351"/>
      <point x="176.047" y="386"/>
      <point x="234.448" y="402"/>
      <point x="264.448" y="402" type="qcurve" smooth="yes"/>
      <point x="313.448" y="402"/>
      <point x="397.433" y="369"/>
      <point x="428.182" y="349" type="qcurve"/>
      <point x="438.172" y="396"/>
      <point x="409.588" y="445"/>
      <point x="343.626" y="464"/>
      <point x="298.626" y="464" type="qcurve"/>
      <point x="301.964" y="475"/>
      <point x="306.641" y="497"/>
      <point x="309.766" y="507" type="qcurve"/>
      <point x="341.766" y="507"/>
      <point x="409.641" y="497"/>
      <point x="464.477" y="468"/>
      <point x="475.887" y="437" type="qcurve"/>
      <point x="508.327" y="472"/>
      <point x="594.979" y="508"/>
      <point x="648.979" y="508" type="qcurve" smooth="yes"/>
      <point x="702.979" y="508"/>
      <point x="773.902" y="470"/>
      <point x="800.96" y="395"/>
      <point x="789.482" y="341" type="qcurve" smooth="yes"/>
      <point x="761.849" y="211" type="line"/>
      <point x="454.449" y="195" type="line"/>
    </contour>
    <contour>
      <point x="418.192" y="302" type="line"/>
      <point x="394.168" y="316"/>
      <point x="340.057" y="339"/>
      <point x="281.245" y="354"/>
      <point x="249.245" y="354" type="qcurve" smooth="yes"/>
      <point x="231.245" y="354"/>
      <point x="185.057" y="339"/>
      <point x="143.492" y="294"/>
      <point x="133.927" y="249" type="qcurve" smooth="yes"/>
      <point x="118.197" y="175" type="line" smooth="yes"/>
      <point x="110.545" y="139"/>
      <point x="114.28" y="86"/>
      <point x="144.053" y="52"/>
      <point x="205.652" y="36"/>
      <point x="256.077" y="38" type="qcurve"/>
      <point x="280.502" y="40"/>
      <point x="320.927" y="42"/>
      <point x="348.565" y="45"/>
      <point x="363.778" y="46"/>
      <point x="363.778" y="46" type="qcurve"/>
    </contour>
    <contour>
      <point x="733.97" y="348" type="line" smooth="yes"/>
      <point x="741.197" y="382"/>
      <point x="725.549" y="426"/>
      <point x="691.863" y="451"/>
      <point x="652.989" y="461"/>
      <point x="636.989" y="461" type="qcurve" smooth="yes"/>
      <point x="603.989" y="461"/>
      <point x="553.163" y="443"/>
      <point x="514.298" y="406"/>
      <point x="486.97" y="348"/>
      <point x="478.467" y="308" type="qcurve" smooth="yes"/>
      <point x="466.139" y="250" type="line"/>
      <point x="715.477" y="261" type="line"/>
    </contour>
  </outline>
</glyph>
<glyph name="divide" format="1">
  <advance width="378"/>
  <unicode hex="00F7"/>
  <outline>
    <contour>
      <point x="103.458" y="355" type="line"/>
      <point x="114.936" y="409" type="line"/>
      <point x="433.936" y="409" type="line"/>
      <point x="422.458" y="355" type="line"/>
    </contour>
    <contour>
      <point x="303.631" y="544" type="qcurve" smooth="yes"/>
      <point x="317.631" y="544"/>
      <point x="333.38" y="524"/>
      <point x="330.404" y="510" type="qcurve" smooth="yes"/>
      <point x="327.641" y="497"/>
      <point x="303.39" y="477"/>
      <point x="289.39" y="477" type="qcurve" smooth="yes"/>
      <point x="275.39" y="477"/>
      <point x="260.641" y="497"/>
      <point x="263.404" y="510" type="qcurve" smooth="yes"/>
      <point x="266.38" y="524"/>
      <point x="289.631" y="544"/>
    </contour>
    <contour>
      <point x="249.004" y="287" type="qcurve" smooth="yes"/>
      <point x="263.004" y="287"/>
      <point x="278.965" y="268"/>
      <point x="275.989" y="254" type="qcurve" smooth="yes"/>
      <point x="273.014" y="240"/>
      <point x="248.975" y="221"/>
      <point x="234.975" y="221" type="qcurve" smooth="yes"/>
      <point x="220.975" y="221"/>
      <point x="206.014" y="240"/>
      <point x="208.989" y="254" type="qcurve" smooth="yes"/>
      <point x="211.965" y="268"/>
      <point x="235.004" y="287"/>
    </contour>
  </outline>
</glyph>
<glyph name="thorn" format="1">
  <advance width="444"/>
  <unicode hex="00FE"/>
  <outline>
    <contour>
      <point x="193.288" y="453" type="line"/>
      <point x="228.24" y="481"/>
      <point x="300.766" y="507"/>
      <point x="343.766" y="507" type="qcurve" smooth="yes"/>
      <point x="398.766" y="507"/>
      <point x="469.713" y="455"/>
      <point x="495.796" y="366"/>
      <point x="483.893" y="310" type="qcurve" smooth="yes"/>
      <point x="471.139" y="250"/>
      <point x="405.647" y="163"/>
      <point x="312.657" y="116"/>
      <point x="256.657" y="116" type="qcurve" smooth="yes"/>
      <point x="220.657" y="116"/>
      <point x="149.521" y="153"/>
      <point x="136.323" y="185" type="qcurve"/>
      <point x="97" y="0" type="line"/>
      <point x="41" y="0" type="line"/>
      <point x="189.364" y="698" type="line"/>
      <point x="245.364" y="698" type="line"/>
    </contour>
    <contour>
      <point x="328.138" y="457" type="qcurve" smooth="yes"/>
      <point x="293.138" y="457"/>
      <point x="227.974" y="428"/>
      <point x="179.433" y="369"/>
      <point x="166.656" y="323" type="qcurve"/>
      <point x="155.815" y="272"/>
      <point x="175.149" y="203"/>
      <point x="226.922" y="169"/>
      <point x="265.922" y="169" type="qcurve" smooth="yes"/>
      <point x="305.922" y="169"/>
      <point x="371.724" y="201"/>
      <point x="418.753" y="267"/>
      <point x="429.168" y="316" type="qcurve" smooth="yes"/>
      <point x="439.796" y="366"/>
      <point x="417.974" y="428"/>
      <point x="365.138" y="457"/>
    </contour>
  </outline>
</glyph>
<glyph name="dslash" format="1">
  <advance width="456"/>
  <unicode hex="0111"/>
  <outline>
    <contour>
      <point x="698.914" y="562" type="line"/>
      <point x="721.445" y="615" type="line"/>
      <point x="485.445" y="615" type="line"/>
      <point x="462.914" y="562" type="line"/>
    </contour>
    <component base="d" yxScale="0.2125"/>
  </outline>
</glyph>
<glyph name="Lslash" format="1">
  <advance width="509"/>
  <unicode hex="0141"/>
  <outline>
    <contour>
      <point x="126" y="0" type="line"/>
      <point x="199.545" y="346" type="line"/>
      <point x="105.467" y="308" type="line"/>
      <point x="94.0953" y="358" type="line"/>
      <point x="212.298" y="406" type="line"/>
      <point x="274.364" y="698" type="line"/>
      <point x="330.364" y="698" type="line"/>
      <point x="273.612" y="431" type="line"/>
      <point x="412.728" y="488" type="line"/>
      <point x="425.312" y="439" type="line"/>
      <point x="261.071" y="372" type="line"/>
      <point x="192.628" y="50" type="line"/>
      <point x="497.628" y="50" type="line"/>
      <point x="487" y="0" type="line"/>
    </contour>
  </outline>
</glyph>
<glyph name="dotlessj" format="1">
  <advance width="187"/>
  <unicode hex="0237"/>
    <anchor name="top" x="405.458" y="735"/>
  <outline>
    <contour>
      <point x="120.219" y="-63" type="line" smooth="yes"/>
      <point x="105.765" y="-97"/>
      <point x="70.5103" y="-147"/>
      <point x="45.4334" y="-166" type="qcurve" smooth="yes"/>
      <point x="26.482" y="-180"/>
      <point x="-18.4451" y="-201"/>
      <point x="-46.8459" y="-209" type="qcurve"/>
      <point x="-44.5666" y="-166" type="line"/>
      <point x="-27.016" y="-160"/>
      <point x="3.6358" y="-142"/>
      <point x="16.3119" y="-131" type="qcurve" smooth="yes"/>
      <point x="46.3645" y="-105"/>
      <point x="64.6438" y="-62" type="qcurve" smooth="yes"/>
      <point x="281.02" y="447" type="line"/>
      <point x="218.02" y="447" type="line"/>
      <point x="240.125" y="499" type="line"/>
      <point x="359.125" y="499" type="line"/>
    </contour>
    <contour>
      <point x="405.458" y="735" type="move" name="top"/>
    </contour>
  </outline>
</glyph>
<glyph name="ring" format="1">
  <advance width="266"/>
  <unicode hex="02DA"/>
  <outline>
    <contour>
      <point x="297.306" y="773" type="qcurve" smooth="yes"/>
      <point x="328.306" y="773"/>
      <point x="372.93" y="743"/>
      <point x="393.089" y="692"/>
      <point x="386.287" y="660" type="qcurve" smooth="yes"/>
      <point x="379.486" y="628"/>
      <point x="337.433" y="576"/>
      <point x="280.056" y="546"/>
      <point x="249.056" y="546" type="qcurve" smooth="yes"/>
      <point x="218.056" y="546"/>
      <point x="172.433" y="576"/>
      <point x="152.486" y="628"/>
      <point x="159.287" y="660" type="qcurve" smooth="yes"/>
      <point x="166.089" y="692"/>
      <point x="207.93" y="743"/>
      <point x="266.306" y="773"/>
    </contour>
    <contour>
      <point x="287.954" y="729" type="qcurve" smooth="yes"/>
      <point x="258.954" y="729"/>
      <point x="209.451" y="689"/>
      <point x="203.287" y="660" type="qcurve" smooth="yes"/>
      <point x="197.123" y="631"/>
      <point x="229.408" y="590"/>
      <point x="258.408" y="590" type="qcurve" smooth="yes"/>
      <point x="287.408" y="590"/>
      <point x="336.123" y="631"/>
      <point x="342.287" y="660" type="qcurve" smooth="yes"/>
      <point x="348.451" y="689"/>
      <point x="316.954" y="729"/>
    </contour>
  </outline>
</glyph>
<glyph name="hungarumlaut" format="1">
  <advance width="266"/>
  <unicode hex="02DD"/>
  <outline>
    <contour>
      <point x="284.862" y="658" type="qcurve"/>
      <point x="214.283" y="580" type="line"/>
      <point x="179.283" y="580" type="line"/>
      <point x="239.814" y="686" type="line" smooth="yes"/>
      <point x="247.79" y="700"/>
      <point x="276.765" y="714"/>
      <point x="288.065" y="706" type="qcurve"/>
      <point x="300.577" y="699"/>
      <point x="296.2" y="669"/>
    </contour>
    <contour>
      <point x="395.862" y="658" type="qcurve"/>
      <point x="326.283" y="580" type="line"/>
      <point x="291.283" y="580" type="line"/>
      <point x="350.814" y="686" type="line" smooth="yes"/>
      <point x="358.79" y="700"/>
      <point x="387.765" y="714"/>
      <point x="399.065" y="706" type="qcurve"/>
      <point x="411.577" y="699"/>
      <point x="408.2" y="669"/>
    </contour>
  </outline>
</glyph>
<glyph name="Gamma" format="1">
  <advance width="382"/>
  <unicode hex="0393"/>
  <outline>
    <contour>
      <point x="41" y="0" type="line"/>
      <point x="189.364" y="698" type="line"/>
      <point x="522.364" y="698" type="line"/>
      <point x="511.099" y="645" type="line"/>
      <point x="234.099" y="645" type="line"/>
      <point x="97" y="0" type="line"/>
    </contour>
  </outline>
</glyph>
<glyph name="Zeta" format="1">
  <advance width="546"/>
  <unicode hex="0396"/>
  <outline>
    <contour>
      <point x="657.365" y="698" type="line"/>
      <point x="646.737" y="648" type="line"/>
      <point x="111.84" y="51" type="line"/>
      <point x="525.84" y="51" type="line"/>
      <point x="515" y="0" type="line"/>
      <point x="29" y="0" type="line"/>
      <point x="39.6278" y="50" type="line"/>
      <point x="575.524" y="647" type="line"/>
      <point x="179.524" y="647" type="line"/>
      <point x="190.364" y="698" type="line"/>
    </contour>
  </outline>
</glyph>
<glyph name="Phi" format="1">
  <advance width="593"/>
  <unicode hex="03A6"/>
  <outline>
    <contour>
      <point x="320.075" y="659" type="line"/>
      <point x="288.587" y="652"/>
      <point x="239.722" y="615"/>
      <point x="207.181" y="556"/>
      <point x="198.679" y="516" type="qcurve" smooth="yes"/>
      <point x="134.7" y="215" type="line" smooth="yes"/>
      <point x="125.347" y="171"/>
      <point x="145.381" y="110"/>
      <point x="199.792" y="79"/>
      <point x="239.792" y="79" type="qcurve" smooth="yes"/>
      <point x="282.792" y="79" type="line"/>
      <point x="394.172" y="603" type="line"/>
      <point x="401.486" y="628"/>
      <point x="425.775" y="667"/>
      <point x="459.514" y="694"/>
      <point x="500.49" y="708"/>
      <point x="523.49" y="708" type="qcurve" smooth="yes"/>
      <point x="582.49" y="708"/>
      <point x="654.075" y="659"/>
      <point x="679.157" y="570"/>
      <point x="666.191" y="509" type="qcurve" smooth="yes"/>
      <point x="605.613" y="224" type="line" smooth="yes"/>
      <point x="592.859" y="164"/>
      <point x="534.367" y="77"/>
      <point x="442.377" y="30"/>
      <point x="378.377" y="30" type="qcurve" smooth="yes"/>
      <point x="329.377" y="30" type="line"/>
      <point x="315.561" y="-35" type="line"/>
      <point x="260.048" y="-28" type="line"/>
      <point x="272.377" y="30" type="line"/>
      <point x="229.377" y="30" type="line" smooth="yes"/>
      <point x="165.377" y="30"/>
      <point x="91.3669" y="77"/>
      <point x="67.8593" y="164"/>
      <point x="80.6127" y="224" type="qcurve" smooth="yes"/>
      <point x="142.679" y="516" type="line" smooth="yes"/>
      <point x="174.563" y="666"/>
      <point x="299.64" y="704" type="qcurve"/>
    </contour>
    <contour>
      <point x="388.792" y="79" type="line" smooth="yes"/>
      <point x="429.792" y="79"/>
      <point x="495.381" y="110"/>
      <point x="541.347" y="171"/>
      <point x="550.7" y="215" type="qcurve" smooth="yes"/>
      <point x="615.317" y="519" type="line" smooth="yes"/>
      <point x="624.032" y="560"/>
      <point x="604.998" y="621"/>
      <point x="556.437" y="656"/>
      <point x="520.437" y="656" type="qcurve" smooth="yes"/>
      <point x="501.437" y="656"/>
      <point x="472.461" y="642"/>
      <point x="453.722" y="615"/>
      <point x="449.259" y="594" type="qcurve" smooth="yes"/>
      <point x="339.792" y="79" type="line"/>
    </contour>
  </outline>
</glyph>
<glyph name="Omegagreek" format="1">
  <advance width="580"/>
  <unicode hex="03A9"/>
    <anchor name="tonos" x="393.579" y="700"/>
  <outline>
    <contour>
      <point x="615.469" y="194" type="line" smooth="yes"/>
      <point x="594.639" y="145"/>
      <point x="528.607" y="72"/>
      <point x="481.255" y="50" type="qcurve"/>
      <point x="551.255" y="50" type="line"/>
      <point x="545.575" y="-1" type="line"/>
      <point x="317.575" y="-1" type="line"/>
      <point x="339.255" y="50" type="line"/>
      <point x="372.255" y="50"/>
      <point x="438.607" y="72"/>
      <point x="456.008" y="80" type="qcurve" smooth="yes"/>
      <point x="490.235" y="97"/>
      <point x="543.465" y="154"/>
      <point x="560.469" y="194" type="qcurve" smooth="yes"/>
      <point x="694.801" y="510" type="line" smooth="yes"/>
      <point x="722.858" y="576"/>
      <point x="682.165" y="652"/>
      <point x="623.165" y="652" type="qcurve" smooth="yes"/>
      <point x="511.165" y="652" type="line" smooth="yes"/>
      <point x="452.165" y="652"/>
      <point x="347.858" y="576"/>
      <point x="319.801" y="510" type="qcurve" smooth="yes"/>
      <point x="185.469" y="194" type="line" smooth="yes"/>
      <point x="172.716" y="164"/>
      <point x="168.312" y="116"/>
      <point x="176.66" y="98" type="qcurve" smooth="yes"/>
      <point x="182.858" y="82"/>
      <point x="237.255" y="50"/>
      <point x="282.255" y="50" type="qcurve"/>
      <point x="260.575" y="-1" type="line"/>
      <point x="32.5749" y="-1" type="line"/>
      <point x="72.255" y="50" type="line"/>
      <point x="136.255" y="50" type="line"/>
      <point x="120.206" y="64"/>
      <point x="107.061" y="106"/>
      <point x="115.441" y="161"/>
      <point x="129.469" y="194" type="qcurve" smooth="yes"/>
      <point x="259.975" y="501" type="line" smooth="yes"/>
      <point x="299.084" y="593"/>
      <point x="439.27" y="704"/>
      <point x="533.27" y="704" type="qcurve" smooth="yes"/>
      <point x="645.27" y="704" type="line" smooth="yes"/>
      <point x="738.27" y="704"/>
      <point x="785.084" y="593"/>
      <point x="745.975" y="501" type="qcurve" smooth="yes"/>
    </contour>
    <contour>
      <point x="393.579" y="700" type="move" name="tonos"/>
    </contour>
  </outline>
</glyph>
<glyph name="alpha" format="1">
  <advance width="438"/>
  <unicode hex="03B1"/>
    <anchor name="tonos" x="334.843" y="545"/>
  <outline>
    <contour>
      <point x="505.09" y="485" type="line"/>
      <point x="505.09" y="485"/>
      <point x="487.462" y="435"/>
      <point x="479.81" y="399" type="qcurve" smooth="yes"/>
      <point x="395.85" y="4" type="line"/>
      <point x="395.85" y="4"/>
      <point x="356.425" y="2"/>
      <point x="298.787" y="-1"/>
      <point x="241.362" y="-3"/>
      <point x="224.15" y="-4" type="qcurve" smooth="yes"/>
      <point x="187.937" y="-5"/>
      <point x="121.488" y="7"/>
      <point x="73.1399" y="43"/>
      <point x="54.8063" y="112"/>
      <point x="66.7095" y="168" type="qcurve" smooth="yes"/>
      <point x="106.032" y="353" type="line" smooth="yes"/>
      <point x="118.573" y="412"/>
      <point x="174.815" y="479"/>
      <point x="248.554" y="506"/>
      <point x="285.554" y="506" type="qcurve" smooth="yes"/>
      <point x="325.554" y="506"/>
      <point x="407.665" y="483"/>
      <point x="443.414" y="463" type="qcurve"/>
      <point x="443.414" y="463"/>
      <point x="456.79" y="493"/>
      <point x="465.554" y="506" type="qcurve"/>
    </contour>
    <contour>
      <point x="120.434" y="162" type="line" smooth="yes"/>
      <point x="108.531" y="106"/>
      <point x="155.778" y="46"/>
      <point x="214.778" y="46" type="qcurve" smooth="yes"/>
      <point x="241.778" y="46"/>
      <point x="290.203" y="48"/>
      <point x="327.628" y="50"/>
      <point x="350.053" y="52"/>
      <point x="350.053" y="52" type="qcurve"/>
      <point x="426.998" y="414" type="line"/>
      <point x="380.25" y="434"/>
      <point x="302.501" y="454"/>
      <point x="272.501" y="454" type="qcurve"/>
      <point x="256.926" y="456"/>
      <point x="212.375" y="444"/>
      <point x="170.81" y="399"/>
      <point x="160.395" y="350" type="qcurve" smooth="yes"/>
    </contour>
    <contour>
      <point x="334.843" y="545" type="move" name="tonos"/>
    </contour>
  </outline>
</glyph>
<glyph name="beta" format="1">
  <advance width="441"/>
  <unicode hex="03B2"/>
  <outline>
    <contour>
      <point x="149.529" y="520" type="line" smooth="yes"/>
      <point x="159.732" y="568"/>
      <point x="218.374" y="651"/>
      <point x="305.002" y="701"/>
      <point x="356.002" y="701" type="qcurve" smooth="yes"/>
      <point x="426.002" y="701"/>
      <point x="482.085" y="612"/>
      <point x="465.631" y="544" type="qcurve" smooth="yes"/>
      <point x="458.254" y="514"/>
      <point x="409.737" y="441"/>
      <point x="358.873" y="404" type="qcurve"/>
      <point x="374.873" y="404" type="line"/>
      <point x="401.235" y="401"/>
      <point x="442.197" y="382"/>
      <point x="466.757" y="347"/>
      <point x="473.067" y="292"/>
      <point x="464.777" y="253" type="qcurve" smooth="yes"/>
      <point x="446.71" y="168" type="line" smooth="yes"/>
      <point x="431.193" y="95"/>
      <point x="360.401" y="16"/>
      <point x="258.449" y="-12"/>
      <point x="193.874" y="-10" type="qcurve"/>
      <point x="181.874" y="-10"/>
      <point x="147.3" y="-8"/>
      <point x="110.937" y="-5"/>
      <point x="94.1498" y="-4" type="qcurve"/>
      <point x="49.938" y="-212" type="line"/>
      <point x="-3.0862" y="-198" type="line"/>
    </contour>
    <contour>
      <point x="208.017" y="527" type="qcurve" smooth="yes"/>
      <point x="172.733" y="361" type="line"/>
      <point x="254.322" y="392" type="line" smooth="yes"/>
      <point x="318.636" y="417"/>
      <point x="394.003" y="494"/>
      <point x="408.418" y="543" type="qcurve"/>
      <point x="419.346" y="585"/>
      <point x="384.099" y="645"/>
      <point x="341.099" y="645" type="qcurve" smooth="yes"/>
      <point x="308.099" y="645"/>
      <point x="251.872" y="611"/>
      <point x="214.394" y="557"/>
    </contour>
    <contour>
      <point x="104.565" y="45" type="line"/>
      <point x="104.565" y="45"/>
      <point x="119.352" y="44"/>
      <point x="146.927" y="42"/>
      <point x="186.29" y="39"/>
      <point x="210.077" y="38" type="qcurve" smooth="yes"/>
      <point x="259.652" y="36"/>
      <point x="325.053" y="52"/>
      <point x="364.28" y="86"/>
      <point x="387.545" y="139"/>
      <point x="395.197" y="175" type="qcurve" smooth="yes"/>
      <point x="411.352" y="251" type="line" smooth="yes"/>
      <point x="420.917" y="296"/>
      <point x="398.482" y="341"/>
      <point x="356.67" y="356"/>
      <point x="337.67" y="356" type="qcurve" smooth="yes"/>
      <point x="312.67" y="356"/>
      <point x="271.545" y="346"/>
      <point x="245.844" y="338" type="qcurve" smooth="yes"/>
      <point x="231.781" y="333"/>
      <point x="202.443" y="322"/>
      <point x="174.105" y="311"/>
      <point x="159.617" y="304" type="qcurve"/>
    </contour>
  </outline>
</glyph>
<glyph name="epsilon" format="1">
  <advance width="395"/>
  <unicode hex="03B5"/>
    <anchor name="tonos" x="312.843" y="545"/>
  <outline>
    <contour>
      <point x="395.163" y="443" type="line"/>
      <point x="352.351" y="458"/>
      <point x="300.563" y="459"/>
      <point x="275.713" y="455" type="qcurve"/>
      <point x="234.65" y="450"/>
      <point x="191.511" y="407"/>
      <point x="185.984" y="381" type="qcurve" smooth="yes"/>
      <point x="179.607" y="351"/>
      <point x="211.767" y="300"/>
      <point x="245.767" y="300" type="qcurve" smooth="yes"/>
      <point x="364.767" y="300" type="line"/>
      <point x="333.289" y="246" type="line"/>
      <point x="235.289" y="246" type="line" smooth="yes"/>
      <point x="216.289" y="246"/>
      <point x="161.25" y="227"/>
      <point x="114.898" y="183"/>
      <point x="106.821" y="145" type="qcurve" smooth="yes"/>
      <point x="97.4682" y="101"/>
      <point x="158.715" y="41"/>
      <point x="220.927" y="42" type="qcurve" smooth="yes"/>
      <point x="244.14" y="43"/>
      <point x="292.84" y="51"/>
      <point x="344.816" y="65"/>
      <point x="370.729" y="74" type="qcurve"/>
      <point x="375.889" y="23" type="line"/>
      <point x="337.488" y="7"/>
      <point x="243.662" y="-11"/>
      <point x="199.662" y="-11" type="qcurve" smooth="yes"/>
      <point x="136.662" y="-11"/>
      <point x="66.2269" y="34"/>
      <point x="42.7436" y="107"/>
      <point x="51.4584" y="148" type="qcurve" smooth="yes"/>
      <point x="60.1732" y="189"/>
      <point x="120.69" y="262"/>
      <point x="163.091" y="278" type="qcurve"/>
      <point x="149.004" y="287"/>
      <point x="129.593" y="318"/>
      <point x="123.883" y="357"/>
      <point x="127.346" y="378" type="qcurve"/>
      <point x="134.148" y="410"/>
      <point x="178.902" y="470"/>
      <point x="256.191" y="509"/>
      <point x="309.191" y="509" type="qcurve" smooth="yes"/>
      <point x="331.191" y="509"/>
      <point x="379.916" y="503"/>
      <point x="406.215" y="495" type="qcurve"/>
    </contour>
    <contour>
      <point x="312.843" y="545" type="move" name="tonos"/>
    </contour>
  </outline>
</glyph>
<glyph name="theta" format="1">
  <advance width="441"/>
  <unicode hex="03B8"/>
  <outline>
    <contour>
      <point x="369.277" y="707" type="qcurve" smooth="yes"/>
      <point x="464.277" y="707"/>
      <point x="531.109" y="598"/>
      <point x="510.916" y="503" type="qcurve" smooth="yes"/>
      <point x="443.961" y="188" type="line" smooth="yes"/>
      <point x="423.343" y="91"/>
      <point x="309.725" y="-6"/>
      <point x="217.725" y="-6" type="qcurve" smooth="yes"/>
      <point x="123.725" y="-6"/>
      <point x="52.618" y="97"/>
      <point x="71.9606" y="188" type="qcurve" smooth="yes"/>
      <point x="97.8925" y="310" type="line" smooth="yes"/>
      <point x="107.458" y="355"/>
      <point x="145.549" y="426"/>
      <point x="172.863" y="451" type="qcurve"/>
      <point x="165.114" y="471"/>
      <point x="162.404" y="510"/>
      <point x="165.843" y="545"/>
      <point x="168.394" y="557" type="qcurve" smooth="yes"/>
      <point x="176.684" y="596"/>
      <point x="229.35" y="665"/>
      <point x="313.278" y="707"/>
    </contour>
    <contour>
      <point x="455.129" y="504" type="line" smooth="yes"/>
      <point x="472.346" y="585"/>
      <point x="416.012" y="654"/>
      <point x="359.012" y="654" type="qcurve" smooth="yes"/>
      <point x="322.012" y="654"/>
      <point x="266.273" y="627"/>
      <point x="231.708" y="582"/>
      <point x="225.969" y="555" type="qcurve" smooth="yes"/>
      <point x="224.481" y="548"/>
      <point x="219.404" y="510"/>
      <point x="229.626" y="464"/>
      <point x="270.486" y="421"/>
      <point x="356.535" y="393"/>
      <point x="431.535" y="393" type="qcurve"/>
    </contour>
    <contour>
      <point x="227.927" y="42" type="qcurve" smooth="yes"/>
      <point x="270.927" y="42"/>
      <point x="334.304" y="72"/>
      <point x="375.845" y="131"/>
      <point x="385.197" y="175" type="qcurve" smooth="yes"/>
      <point x="421.97" y="348" type="line"/>
      <point x="331.119" y="344"/>
      <point x="225.771" y="380"/>
      <point x="199.723" y="408" type="qcurve"/>
      <point x="182.897" y="390"/>
      <point x="160.482" y="341"/>
      <point x="153.893" y="310" type="qcurve" smooth="yes"/>
      <point x="125.197" y="175" type="line" smooth="yes"/>
      <point x="115.845" y="131"/>
      <point x="136.304" y="72"/>
      <point x="188.927" y="42"/>
    </contour>
  </outline>
</glyph>
<glyph name="rho" format="1">
  <advance width="436"/>
  <unicode hex="03C1"/>
  <outline>
    <contour>
      <point x="440.135" y="170" type="line" smooth="yes"/>
      <point x="420.579" y="78"/>
      <point x="314.174" y="-18"/>
      <point x="231.174" y="-18" type="qcurve" smooth="yes"/>
      <point x="200.174" y="-18"/>
      <point x="147.425" y="2"/>
      <point x="111.439" y="35"/>
      <point x="103.903" y="56" type="qcurve"/>
      <point x="45.6627" y="-218" type="line"/>
      <point x="-8.5741" y="-205" type="line"/>
      <point x="100.893" y="310" type="line" smooth="yes"/>
      <point x="121.085" y="405"/>
      <point x="240.554" y="506"/>
      <point x="328.554" y="506" type="qcurve" smooth="yes"/>
      <point x="417.554" y="506"/>
      <point x="489.235" y="401"/>
      <point x="469.893" y="310" type="qcurve" smooth="yes"/>
    </contour>
    <contour>
      <point x="413.893" y="310" type="line" smooth="yes"/>
      <point x="429.409" y="383"/>
      <point x="383.501" y="454"/>
      <point x="320.501" y="454" type="qcurve" smooth="yes"/>
      <point x="254.501" y="454"/>
      <point x="173.409" y="383"/>
      <point x="157.893" y="310" type="qcurve" smooth="yes"/>
      <point x="127.497" y="167" type="line" smooth="yes"/>
      <point x="118.357" y="124"/>
      <point x="143.029" y="66"/>
      <point x="199.439" y="35"/>
      <point x="237.439" y="35" type="qcurve" smooth="yes"/>
      <point x="294.439" y="35"/>
      <point x="369.043" y="99"/>
      <point x="382.434" y="162" type="qcurve" smooth="yes"/>
    </contour>
  </outline>
</glyph>
<glyph name="sigma1" format="1">
  <advance width="340"/>
  <unicode hex="03C2"/>
  <outline>
    <contour>
      <point x="140.366" y="284" type="line" smooth="yes"/>
      <point x="133.989" y="254"/>
      <point x="142.424" y="209"/>
      <point x="167.685" y="182" type="qcurve" smooth="yes"/>
      <point x="179.922" y="169"/>
      <point x="207.545" y="139"/>
      <point x="228.657" y="116" type="qcurve" smooth="yes"/>
      <point x="243.468" y="101"/>
      <point x="272.391" y="63"/>
      <point x="285.976" y="14"/>
      <point x="278.961" y="-19" type="qcurve" smooth="yes"/>
      <point x="273.222" y="-46"/>
      <point x="241.87" y="-90"/>
      <point x="195.218" y="-126"/>
      <point x="164.817" y="-142" type="qcurve"/>
      <point x="147.044" y="-108" type="line"/>
      <point x="167.382" y="-97"/>
      <point x="202.121" y="-70"/>
      <point x="226.923" y="-38"/>
      <point x="230.324" y="-22" type="qcurve" smooth="yes"/>
      <point x="236.063" y="5"/>
      <point x="221.502" y="40"/>
      <point x="197.604" y="64" type="qcurve" smooth="yes"/>
      <point x="171.555" y="92"/>
      <point x="137.207" y="128"/>
      <point x="123.396" y="143" type="qcurve" smooth="yes"/>
      <point x="90.6225" y="177"/>
      <point x="73.801" y="239"/>
      <point x="83.1535" y="283" type="qcurve" smooth="yes"/>
      <point x="85.2791" y="293"/>
      <point x="89.5302" y="313"/>
      <point x="93.5688" y="332"/>
      <point x="97.8199" y="352"/>
      <point x="102.071" y="372"/>
      <point x="104.197" y="382" type="qcurve" smooth="yes"/>
      <point x="112.911" y="423"/>
      <point x="173.39" y="477"/>
      <point x="252.916" y="503"/>
      <point x="287.916" y="503" type="qcurve" smooth="yes"/>
      <point x="327.916" y="503"/>
      <point x="383.303" y="486"/>
      <point x="412.689" y="469"/>
      <point x="412.689" y="469" type="qcurve"/>
      <point x="382.337" y="425" type="line"/>
      <point x="373.825" y="432"/>
      <point x="345.588" y="445"/>
      <point x="310.501" y="454"/>
      <point x="290.501" y="454" type="qcurve"/>
      <point x="259.926" y="456"/>
      <point x="204.1" y="438"/>
      <point x="165.235" y="401"/>
      <point x="159.284" y="373" type="qcurve" smooth="yes"/>
    </contour>
  </outline>
</glyph>
<glyph name="upsilon" format="1">
  <advance width="440"/>
  <unicode hex="03C5"/>
    <anchor name="tonos" x="335.843" y="545"/>
    <anchor name="top" x="335.843" y="545"/>
  <outline>
    <contour>
      <point x="443.11" y="184" type="line" smooth="yes"/>
      <point x="425.043" y="99"/>
      <point x="312.874" y="-10"/>
      <point x="219.874" y="-10" type="qcurve" smooth="yes"/>
      <point x="157.874" y="-10"/>
      <point x="84.9274" y="42"/>
      <point x="61.6324" y="130"/>
      <point x="73.1104" y="184" type="qcurve" smooth="yes"/>
      <point x="140.066" y="499" type="line"/>
      <point x="197.066" y="499" type="line"/>
      <point x="127.985" y="174" type="line" smooth="yes"/>
      <point x="119.483" y="134"/>
      <point x="139.729" y="74"/>
      <point x="192.502" y="40"/>
      <point x="232.502" y="40" type="qcurve" smooth="yes"/>
      <point x="274.502" y="40"/>
      <point x="337.517" y="73"/>
      <point x="378.27" y="133"/>
      <point x="386.985" y="174" type="qcurve" smooth="yes"/>
      <point x="456.066" y="499" type="line"/>
      <point x="510.066" y="499" type="line"/>
    </contour>
    <contour>
      <point x="335.843" y="545" type="move" name="tonos"/>
    </contour>
    <contour>
      <point x="335.843" y="545" type="move" name="top"/>
    </contour>
  </outline>
</glyph>
<glyph name="psi" format="1">
  <advance width="592"/>
  <unicode hex="03C8"/>
  <outline>
    <contour>
      <point x="633.128" y="504" type="line"/>
      <point x="648.815" y="479"/>
      <point x="648.124" y="424"/>
      <point x="640.047" y="386" type="qcurve" smooth="yes"/>
      <point x="597.961" y="188" type="line" smooth="yes"/>
      <point x="578.831" y="98"/>
      <point x="463.512" y="-7"/>
      <point x="368.512" y="-7" type="qcurve" smooth="yes"/>
      <point x="324.512" y="-7" type="line"/>
      <point x="280.088" y="-216" type="line"/>
      <point x="226.064" y="-202" type="line"/>
      <point x="267.512" y="-7" type="line"/>
      <point x="217.512" y="-7" type="line" smooth="yes"/>
      <point x="123.512" y="-7"/>
      <point x="53.8305" y="98"/>
      <point x="72.9606" y="188" type="qcurve" smooth="yes"/>
      <point x="138.853" y="498" type="line"/>
      <point x="191.853" y="498" type="line"/>
      <point x="123.835" y="178" type="line" smooth="yes"/>
      <point x="109.806" y="112"/>
      <point x="169.14" y="43"/>
      <point x="228.14" y="43" type="qcurve" smooth="yes"/>
      <point x="278.14" y="43" type="line"/>
      <point x="374.853" y="498" type="line"/>
      <point x="431.853" y="498" type="line"/>
      <point x="335.14" y="43" type="line"/>
      <point x="379.14" y="43" type="line" smooth="yes"/>
      <point x="419.14" y="43"/>
      <point x="484.729" y="74"/>
      <point x="530.483" y="134"/>
      <point x="539.835" y="178" type="qcurve" smooth="yes"/>
      <point x="584.047" y="386" type="line" smooth="yes"/>
      <point x="590.849" y="418"/>
      <point x="589.476" y="468"/>
      <point x="570.515" y="487" type="qcurve"/>
    </contour>
  </outline>
</glyph>
<glyph name="quoteleft" format="1">
  <advance width="127"/>
  <unicode hex="2018"/>
  <outline>
    <contour>
      <point x="245.79" y="700" type="line"/>
      <point x="225.538" y="680"/>
      <point x="203.249" y="641"/>
      <point x="197.848" y="625" type="qcurve"/>
      <point x="210.21" y="622"/>
      <point x="222.384" y="604"/>
      <point x="219.833" y="592" type="qcurve" smooth="yes"/>
      <point x="216.858" y="578"/>
      <point x="192.819" y="559"/>
      <point x="178.819" y="559" type="qcurve" smooth="yes"/>
      <point x="165.819" y="559"/>
      <point x="149.645" y="577"/>
      <point x="152.833" y="592" type="qcurve" smooth="yes"/>
      <point x="157.722" y="615"/>
      <point x="177.012" y="654"/>
      <point x="199.389" y="684"/>
      <point x="221.852" y="705"/>
      <point x="230.34" y="712" type="qcurve"/>
    </contour>
  </outline>
</glyph>
<glyph name="quoteright" format="1">
  <advance width="128"/>
  <unicode hex="2019"/>
  <outline>
    <contour>
      <point x="147.394" y="557" type="line"/>
      <point x="167.645" y="577"/>
      <point x="189.722" y="615"/>
      <point x="194.123" y="631" type="qcurve"/>
      <point x="183.761" y="634"/>
      <point x="171.587" y="652"/>
      <point x="174.138" y="664" type="qcurve" smooth="yes"/>
      <point x="177.113" y="678"/>
      <point x="201.365" y="698"/>
      <point x="214.365" y="698" type="qcurve" smooth="yes"/>
      <point x="228.365" y="698"/>
      <point x="244.326" y="679"/>
      <point x="241.138" y="664" type="qcurve" smooth="yes"/>
      <point x="236.249" y="641"/>
      <point x="217.172" y="603"/>
      <point x="194.795" y="573"/>
      <point x="172.119" y="551"/>
      <point x="162.631" y="544" type="qcurve"/>
    </contour>
  </outline>
</glyph>
<glyph name="quotedblbase" format="1">
  <advance width="318"/>
  <unicode hex="201E"/>
  <outline>
    <contour>
      <point x="20.1838" y="-65" type="line"/>
      <point x="39.435" y="-45"/>
      <point x="61.7247" y="-6"/>
      <point x="66.1256" y="10" type="qcurve"/>
      <point x="55.5507" y="12"/>
      <point x="43.3767" y="30"/>
      <point x="46.1399" y="43" type="qcurve" smooth="yes"/>
      <point x="49.1157" y="57"/>
      <point x="72.1543" y="76"/>
      <point x="86.1543" y="76" type="qcurve" smooth="yes"/>
      <point x="100.154" y="76"/>
      <point x="115.328" y="58"/>
      <point x="113.14" y="43" type="qcurve"/>
      <point x="108.039" y="19"/>
      <point x="88.9614" y="-19"/>
      <point x="65.5847" y="-49"/>
      <point x="44.1211" y="-70"/>
      <point x="34.6332" y="-77" type="qcurve"/>
    </contour>
    <contour>
      <point x="199.184" y="-65" type="line"/>
      <point x="219.435" y="-45"/>
      <point x="241.725" y="-6"/>
      <point x="246.126" y="10" type="qcurve"/>
      <point x="234.551" y="12"/>
      <point x="222.377" y="30"/>
      <point x="225.14" y="43" type="qcurve" smooth="yes"/>
      <point x="228.116" y="57"/>
      <point x="252.154" y="76"/>
      <point x="265.154" y="76" type="qcurve" smooth="yes"/>
      <point x="279.154" y="76"/>
      <point x="295.328" y="58"/>
      <point x="292.14" y="43" type="qcurve" smooth="yes"/>
      <point x="287.039" y="19"/>
      <point x="267.961" y="-19"/>
      <point x="245.585" y="-49"/>
      <point x="223.121" y="-70"/>
      <point x="214.633" y="-77" type="qcurve"/>
    </contour>
  </outline>
</glyph>
<glyph name="guilsinglleft" format="1">
  <advance width="283"/>
  <unicode hex="2039"/>
  <outline>
    <contour>
      <point x="83.54" y="266" type="line"/>
      <point x="309.288" y="453" type="line"/>
      <point x="338.424" y="416" type="line"/>
      <point x="156.54" y="266" type="line"/>
      <point x="272.019" y="113" type="line"/>
      <point x="229.792" y="79" type="line"/>
    </contour>
  </outline>
</glyph>
<glyph name="guilsinglright" format="1">
  <advance width="283"/>
  <unicode hex="203A"/>
  <outline>
    <contour>
      <point x="236.54" y="266" type="line"/>
      <point x="119.424" y="416" type="line"/>
      <point x="164.288" y="453" type="line"/>
      <point x="310.54" y="266" type="line"/>
      <point x="84.792" y="79" type="line"/>
      <point x="57.0189" y="113" type="line"/>
    </contour>
  </outline>
</glyph>
<glyph name="Y_upper_alt" format="1">
  <advance width="485"/>
  <unicode hex="9997"/>
  <outline>
    <contour>
      <point x="341.482" y="341" type="line"/>
      <point x="269" y="0" type="line"/>
      <point x="213" y="0" type="line"/>
      <point x="285.057" y="339" type="line"/>
      <point x="154.364" y="698" type="line"/>
      <point x="217.364" y="698" type="line"/>
      <point x="326.085" y="405" type="line"/>
      <point x="561.364" y="698" type="line"/>
      <point x="625.364" y="698" type="line"/>
    </contour>
  </outline>
</glyph>
<glyph name="commaaccent" format="1">
  <advance width="266"/>
  <unicode hex="F6C3"/>
  <outline>
    <contour>
      <point x="56.543" y="-195" type="line"/>
      <point x="76.795" y="-175"/>
      <point x="98.0864" y="-136"/>
      <point x="103.488" y="-120" type="qcurve"/>
      <point x="91.9132" y="-118"/>
      <point x="79.9526" y="-99"/>
      <point x="82.5038" y="-87" type="qcurve" smooth="yes"/>
      <point x="85.4802" y="-73"/>
      <point x="108.52" y="-54"/>
      <point x="122.52" y="-54" type="qcurve" smooth="yes"/>
      <point x="136.52" y="-54"/>
      <point x="151.693" y="-72"/>
      <point x="149.504" y="-87" type="qcurve"/>
      <point x="144.401" y="-111"/>
      <point x="125.323" y="-149"/>
      <point x="101.945" y="-179"/>
      <point x="80.48" y="-200"/>
      <point x="70.9918" y="-207" type="qcurve"/>
    </contour>
  </outline>
</glyph>
